<?xml version="1.0" encoding="utf-8"?>
<!-- Generator: Adobe Illustrator 17.0.0, SVG Export Plug-In . SVG Version: 6.00 Build 0)  -->
<!DOCTYPE svg PUBLIC "-//W3C//DTD SVG 1.1//EN" "http://www.w3.org/Graphics/SVG/1.1/DTD/svg11.dtd">
<svg version="1.1" xmlns="http://www.w3.org/2000/svg" xmlns:xlink="http://www.w3.org/1999/xlink" x="0px" y="0px" width="200px"
	 height="200px" viewBox="0 0 200 200" enable-background="new 0 0 200 200" xml:space="preserve">
<g id="parking_outline">
	<path fill="none" stroke="#000000" stroke-width="0.25" stroke-miterlimit="10" d="M192.69,150.192l8.41-5.053l12.584,21.098
		l-89.894,53.221l-16.357-18.311l33.391-19.5c0,0,37.589-22.761,38.64-23.387c1.276-4.355-5.18-9.76-5.906-9.885
		c-0.726-0.125-1.401,0.701-1.401,0.701l0.851,1.852l-3.329,1.802c0,0-0.801-1.527-0.926-1.777
		c-2.578,1.276-1.952,2.127-1.952,2.127l3.128,5.706c0,0-14.59,8.909-14.941,8.959c-1.051-1.827-1.401-1.401-1.401-1.401
		s-1.151,0.4-1.351,0.425c-1.026-0.15-0.3,1.952-0.3,1.952s-6.207,1.351-6.607,1.426c-0.25-2.152-1.001-1.577-1.001-1.577
		l-5.08,1.101c0,0-0.527-1.611-0.576-2.052c0.15-0.075,2.002-0.325,1.727-1.076c-0.125-0.726-2.052,0.1-2.052,0.1
		s-3.404-11.062-3.128-11.112c1.126,0.125,1.952-0.801,1.952-0.801l-0.501-1.577l-1.552-1.326l1.326-1.452
		c0,0,0.826,0.676,1.376,1.101c1.126,0.175,0.901-0.726,0.851-1.001c-4.98-3.253-2.202-6.632-2.202-6.632l-0.501-0.45l7.358-8.209
		l4.154,3.829l-7.308,8.008c0,0-1.552-1.427-2.027-1.702c-1.301,1.977,2.127,3.904,2.352,3.629
		c0.225-0.275,7.156-8.344,8.634-10.411c-1.968-2.954,4.405-5.381,4.405-5.381c4.72-2.615,18.344,8.459,18.344,8.459l1.318-1.567
		l-0.575-2.303l7.89-5.229l0.672,1.448c0,0,0.96,0.292,0.96-0.452l3.944,0.926c0,0-0.516,3.377,2.995,2.339
		c3.51-1.038,11.316-0.893,11.316-0.893l-0.399,2.54c0,0-11.909,0.409-12.423,0.937"/>
</g>
<g id="path">
	<path fill="#893008" stroke="#893008" stroke-miterlimit="10" d="M141.55,126.906c0,0,2.455,8.263,6.788,10.086
		c0.751-3.303,6.8-5.77,9.567-4.333c0.021-0.729,0-1.266,0-1.266s-4.933,0.408-6.113-0.343s-3.207-5.032-3.073-5.455
		C148.102,126.439,141.668,128.103,141.55,126.906"/>
</g>
<g id="parking_lot">
	<path fill="none" stroke="#000000" stroke-width="0.15" stroke-miterlimit="10" d="M184.02,139.141l0.42-0.776
		c0,0-0.291-1.552-0.776-1.585c-0.485-0.032-0.356,0.582-0.356,0.582l0.388,1.003l-8.214,5.433l-1.067-1.746
		c0,0-1.617-0.129-0.744,1.746c1.132,1.488,2.296,0.679,2.296,0.679L184.02,139.141z"/>
	<path fill="none" stroke="#000000" stroke-width="0.15" stroke-miterlimit="10" d="M168.952,147.409c0,0-1.186-1.959,0.116-2.494
		c1.163-0.349,2.302,1.488,2.302,1.535s0.512,0.233-1.721,1.628s-8.581,5.139-9.046,5.023c-0.465,0.093-2.721,0.721-3.302-0.186
		c-0.581-0.907,1.442-1.721,1.488-1.721c0.224,0.308,1,1.512,1,1.512L168.952,147.409z"/>
	<path fill="none" stroke="#000000" stroke-width="0.15" stroke-miterlimit="10" d="M164.231,140.473c0,0-0.605,0.535-0.605,1.209
		s1.07,3.116,1.953,2.581c0.884-0.535,1.837-1.395,1.442-2.116C166.626,141.427,164.882,140.171,164.231,140.473z"/>
	<path fill="none" stroke="#000000" stroke-width="0.15" stroke-miterlimit="10" d="M152.463,147.171l2.233,3.628
		c0,0-0.07,0.837-0.674,0.651c-0.605-0.186-3.256-3.419-2.256-4.186C152.333,146.913,152.463,147.171,152.463,147.171z"/>
	<path fill="none" stroke="#000000" stroke-width="0.15" stroke-miterlimit="10" d="M146.603,146.171l0.628,2.419
		c0,0-1.721,0.884-2.14,0C144.673,147.706,146.603,146.171,146.603,146.171z"/>
	<path fill="none" stroke="#000000" stroke-width="0.15" stroke-miterlimit="10" d="M146.277,151.985l3.419-0.791
		c0,0,1.07,0.233,0.326,1.07c-1,0.326-3.419,0.767-3.419,0.767S145.65,152.636,146.277,151.985z"/>
	<path fill="none" stroke="#000000" stroke-width="0.15" stroke-miterlimit="10" d="M143.138,151.194l0.628,1.837
		c0,0,0.07,0.512-0.314,0.698c-0.477,0.14-3.221,0.674-3.221,0.674s-0.791-0.209-0.488-0.628c0.302-0.419,2.512-2.814,2.512-2.814
		S142.903,150.505,143.138,151.194z"/>
	<path fill="none" stroke="#000000" stroke-width="0.15" stroke-miterlimit="10" d="M151.184,140.892l1.581,2.651l0.814-0.86
		l-0.953-1.606l5.465-3.882c0,0,1.651,2.023,1.907,1.837c0.256-0.186,1.442-0.86,1.186-1.512
		C160.928,136.869,154.091,134.055,151.184,140.892z"/>
	<path fill="none" stroke="#000000" stroke-width="0.15" stroke-miterlimit="10" d="M150.998,141.45l1.279,2.372l-1.558,0.874
		C150.719,144.696,150.556,141.892,150.998,141.45z"/>
	<path fill="none" stroke="#000000" stroke-width="0.15" stroke-miterlimit="10" d="M153.533,154.845c0,0,0.302-0.651,1.07-0.326
		s4.946,2.395,9.705-0.86c0.295-0.07,0.69,0.605,0.69,0.605l-9.837,5.86C155.161,160.124,153.37,155.31,153.533,154.845z"/>
	<path fill="none" stroke="#000000" stroke-width="0.15" stroke-miterlimit="10" d="M149.277,163.985l3.419-0.791
		c0,0,1.07,0.233,0.326,1.07c-1,0.326-3.419,0.767-3.419,0.767S148.65,164.636,149.277,163.985z"/>
	<path fill="none" stroke="#000000" stroke-width="0.15" stroke-miterlimit="10" d="M143.138,165.543l3.233-0.884
		c0,0,1.14,0.349,0.349,1c-1.07,0.349-3.302,0.884-3.302,0.884S142.44,166.054,143.138,165.543z"/>
	<path fill="none" stroke="#000000" stroke-width="0.15" stroke-miterlimit="10" d="M183.782,155.447"/>
	<path fill="none" stroke="#000000" stroke-width="0.15" stroke-miterlimit="10" d="M178.457,146.158l7.017-4.495
		c0,0,0.259-0.204,0-0.587c-0.259-0.383-0.693-0.032-0.804,0c-0.111,0.032-7.701,4.891-7.701,4.891s-0.651,1.032-0.333,1.461
		s4.113,4.922,4.716,6.685c0.825,0.701,2.207,1.096,2.429,1.334c0.222,0.238,8.908-5.256,8.908-5.256l-5.113-10.829
		c0,0-0.286,0.032-0.016,0.572c0.27,0.54,3.509,7.844,3.509,7.844l-0.492,0.619l-0.365-0.635l-0.381,0.111l-0.397-0.889
		l-1.127,0.492l0.365,0.81l-5.256,3.557l-1.096-1.826l-0.953,0.603l-0.206-0.318l-0.889,0.46l-1.763-2.334l0.873-0.619
		L178.457,146.158z"/>
</g>
<g id="Oval">
	<path fill="none" stroke="#893009" stroke-miterlimit="10" d="M147.757,125.98c0,0-1.188-15.945,0-18.6
		c1.188-2.655,6.105-9.13,6.105-9.13"/>
	<polyline fill="none" stroke="#893009" stroke-miterlimit="10" points="139.773,101.102 148.062,106.764 160.247,110.124 	"/>
	<line fill="none" stroke="#893009" stroke-miterlimit="10" x1="147.229" y1="109.245" x2="132.123" y2="114.536"/>
	<polyline fill="none" stroke="#893009" stroke-miterlimit="10" points="135.081,106.196 139.773,111.541 147.229,120.152 	"/>
	<g id="Layer_3">
		
			<ellipse transform="matrix(-0.7634 -0.6459 0.6459 -0.7634 185.3492 292.2632)" fill="none" stroke="#893009" stroke-miterlimit="10" cx="146.199" cy="112.187" rx="12.521" ry="16.106"/>
		
			<ellipse transform="matrix(0.8528 0.5222 -0.5222 0.8528 77.8603 -61.5416)" fill="#893009" cx="148.104" cy="107.352" rx="1.906" ry="2.772"/>
	</g>
</g>
<g id="Layer_1">
	<g id="track">
		<g>
			<path fill="none" stroke="#000000" stroke-width="0.75" stroke-miterlimit="10" d="M97.699,56.165
				c8.543,0,15.468,6.925,15.468,15.468v23.522c0,8.543-6.925,15.468-15.468,15.468s-15.468-6.925-15.468-15.468V71.634
				C82.231,63.091,89.156,56.165,97.699,56.165z"/>
		</g>
		<g>
			<path fill="none" stroke="#000000" stroke-width="0.75" stroke-miterlimit="10" d="M97.796,59.616
				c6.636,0,12.016,5.996,12.016,13.392v20.365c0,7.396-5.38,13.392-12.016,13.392c-6.636,0-12.016-5.996-12.016-13.392V73.008
				C85.78,65.612,91.16,59.616,97.796,59.616z"/>
		</g>
	</g>
	<g id="Baseball_Soccer_field">
		<path fill="none" stroke="#000000" stroke-width="0.75" stroke-miterlimit="10" d="M55.845,36.976
			c0.897,1.256,1.064,2.673,0.375,3.165L24.07,63.092c-0.69,0.492-1.975-0.127-2.872-1.383L2.8,35.937
			c-0.897-1.256-1.064-2.673-0.375-3.165L34.575,9.82c0.69-0.492,1.975,0.127,2.872,1.383L55.845,36.976z"/>
	</g>
	<g id="Lacrosse_Field">
		<path fill="none" stroke="#000000" stroke-width="0.75" stroke-miterlimit="10" d="M49.08,49.151
			c-0.626-0.571-1.596-0.527-2.167,0.099L25.717,72.483c-0.571,0.626-0.527,1.596,0.099,2.167l12.466,11.373
			c0.626,0.571,1.596,0.527,2.167-0.099l21.195-23.232c0.571-0.626,0.527-1.596-0.099-2.167L49.08,49.151z"/>
	</g>
	<g id="Middle_School">
		<polygon fill="none" stroke="#000000" stroke-width="0.75" stroke-miterlimit="10" points="176.878,113.285 180.446,110.815 
			179.751,108.606 181.185,107.391 180.046,104.818 178.614,105.038 177.365,93.282 178.091,86.962 170.368,86.448 170.368,105.185 
			171.855,108.711 		"/>
	</g>
	<g id="Library">
		<polygon fill="none" stroke="#000000" stroke-width="0.75" stroke-miterlimit="10" points="158.445,99.306 163.551,106.764 
			168.842,103.825 163.845,96.184 		"/>
	</g>
	<g id="Shallcross">
		<polygon fill="none" stroke="#000000" stroke-width="0.75" stroke-miterlimit="10" points="156.02,125.28 159.308,127.882 
			159.988,127.031 161.273,127.031 162.78,125.228 166.49,128.519 166.196,129.039 171.127,132.312 174.331,129.045 174.331,129.67 
			177.143,129.449 177.143,128.017 180.019,127.612 179.165,122.173 177.695,122.173 177.181,118.601 177.842,117.89 
			170.531,112.042 169.723,112.81 165.682,112.882 		"/>
	</g>
	<g id="Main">
		<polygon fill="none" stroke="#000000" stroke-width="0.75" stroke-miterlimit="10" points="128.576,130.167 131.479,132.444 
			131.919,132.04 134.822,134.428 133.022,136.669 137.1,140.049 142.096,133.914 138.753,131.195 139.341,130.35 137.687,128.881 
			137.283,129.322 135.777,128.219 136.622,126.86 134.344,124.986 132.03,127.815 131.038,127.081 		"/>
	</g>
	<g id="Language">
		<polygon fill="none" stroke="#000000" stroke-width="0.75" stroke-miterlimit="10" points="119.024,108.087 122.808,111.063 
			121.523,112.569 124.737,115.141 124.406,115.545 125.105,116.151 124.462,116.922 125.931,118.135 123.672,121.074 
			122.037,119.751 122.772,118.631 122.478,118.337 122.074,118.741 121.816,118.557 121.302,118.925 118.51,116.61 
			115.461,120.541 118.73,126.419 114.689,128.881 110.391,121.276 113.514,119.145 111.53,117.675 		"/>
	</g>
	<g id="FCC">
		<path fill="none" stroke="#000000" stroke-width="0.75" stroke-miterlimit="10" d="M129.862,90.085l3.417-2.902l7.642,8.744
			l-3.747,3.159l-1.543-1.506c0,0-3.049,1.139-4.004,5.658c0.147,0.257,0.771,0.661,0.771,0.661l-2.682,3.931l-11.205-8.082
			l2.498-3.637l1.947,1.249l1.249-1.433l2.682,1.58l3.968-3.086l-2.094-2.094l1.69-1.359L129.862,90.085z"/>
	</g>
	<g id="Shimada">
		<polygon fill="none" stroke="#000000" stroke-width="0.75" stroke-miterlimit="10" points="137.586,53.687 139.97,61.746 
			136.753,62.543 139.626,69.297 138.381,69.882 143.417,80.167 145.989,80.35 145.424,87.146 150.553,87.403 150.553,95.328 
			153.749,95.328 153.749,93.391 161.163,93.465 161.163,93.171 163.175,93.245 163.308,87.844 161.317,87.734 161.24,87.513 
			160.21,87.477 160.466,78.439 158.812,78.329 157.453,73.222 158.188,73.149 154.918,60.474 151.097,61.282 150.73,59.96 
			154.734,59.115 152.199,51.473 146.358,51.032 		"/>
	</g>
	<g id="city_ave_field">
		<path fill="none" stroke="#000000" stroke-width="0.75" stroke-miterlimit="10" d="M92.66,157.292
			c-0.806,0.261-1.248,1.126-0.987,1.932l9.685,29.919c0.261,0.806,1.126,1.248,1.932,0.987l16.054-5.197
			c0.806-0.261,1.248-1.126,0.987-1.932l-9.685-29.919c-0.261-0.806-1.126-1.248-1.932-0.987L92.66,157.292z"/>
	</g>
	<g id="field_hockey">
		<path fill="none" stroke="#000000" stroke-width="0.75" stroke-miterlimit="10" d="M83.27,114.841
			c-0.847,0.016-1.521,0.715-1.505,1.562l0.587,31.443c0.016,0.847,0.715,1.521,1.562,1.505l16.872-0.315
			c0.847-0.016,1.521-0.715,1.505-1.562l-0.587-31.443c-0.016-0.847-0.715-1.521-1.562-1.505L83.27,114.841z"/>
	</g>
	<g id="tennis">
		<g id="Lacrosse_Field_4_">
			<path fill="none" stroke="#000000" stroke-width="0.75" stroke-miterlimit="10" d="M167.367,55.989
				c-0.674-0.034-1.247,0.486-1.281,1.159l-1.246,25.015c-0.034,0.674,0.486,1.247,1.159,1.281l13.422,0.668
				c0.674,0.034,1.247-0.486,1.281-1.159l1.246-25.015c0.034-0.674-0.486-1.247-1.159-1.281L167.367,55.989z"/>
		</g>
	</g>
	<g id="Lacrosse_Field_3_">
		<path fill="none" stroke="#000000" stroke-width="0.75" stroke-miterlimit="10" d="M117.532,55.728
			c-0.653,0.044-1.146,0.609-1.102,1.262l1.637,24.231c0.044,0.653,0.609,1.146,1.262,1.102l13.002-0.878
			c0.653-0.044,1.146-0.609,1.102-1.262l-1.637-24.231c-0.044-0.653-0.609-1.146-1.262-1.102L117.532,55.728z"/>
	</g>
</g>
</svg>
